<?xml version="1.0" encoding="utf-8"?>
<!-- Generator: Adobe Illustrator 24.0.2, SVG Export Plug-In . SVG Version: 6.00 Build 0)  -->
<svg version="1.1" id="Calque_1" xmlns="http://www.w3.org/2000/svg" xmlns:xlink="http://www.w3.org/1999/xlink" x="0px" y="0px"
	 viewBox="0 0 381.9 381.9" style="enable-background:new 0 0 381.9 381.9;" xml:space="preserve">
<style type="text/css">
	.st0{fill:#B9A3CC;}
	.st1{fill:#FFFFFF;}
	.st2{fill:#BACDE6;}
</style>
<title>Fichier 2</title>
<g id="Calque_2_1_">
	<g id="Objects">
		<circle class="st0" cx="190.9" cy="190.9" r="190.9"/>
		<path class="st1" d="M138.7,77.2c-3.1-5.4-18.5-32.6,5.7-46.7c-0.3-0.1,0.6,12.4,5.9,14.8c1.8,0.8,10.4,22.6-2.7,32.5
			c-0.5,0.3-1,0.5-1.6,0.5h-5.3C139.8,78.3,139.1,77.9,138.7,77.2z"/>
		<path class="st1" d="M270,298.3h-55.7c-6.3,0-11.3-4.2-11.3-9.4V174.8c0-5.2,5.1-9.4,11.3-9.4H270c6.3,0,11.3,4.2,11.3,9.4v114.1
			C281.3,294.1,276.2,298.3,270,298.3z"/>
		<path class="st1" d="M236.3,157.4c-2.4-3.4-14.7-20.5,4.5-29.4c-0.2,0,0.5,7.8,4.7,9.3c1.4,0.5,8.2,14.2-2.2,20.4
			c-0.4,0.2-0.8,0.3-1.3,0.3h-4.2C237.2,158.1,236.6,157.8,236.3,157.4z"/>
		<path class="st2" d="M257.3,289.7c0,0,15.1,1.1,15.3-8.3s0-43.8,0-43.8l-4.4,39.1c0,0,0.1,6.3-8.2,9.3c-1.7,0.6-23.1,3.3-23.1,3.3
			L257.3,289.7z"/>
		<path class="st1" d="M176.6,295h-70.3c-7.9,0-14.3-6.7-14.3-15V98.6c0-8.3,6.4-15,14.3-15h70.3c7.9,0,14.3,6.7,14.3,15V280
			C190.9,288.3,184.5,295,176.6,295z"/>
		<path class="st2" d="M162.7,280.5c0,0,15.1,1.1,15.3-8.3s0-43.8,0-43.8l-4.4,39c0,0,0.1,6.3-8.2,9.4c-1.7,0.6-23.1,3.3-23.1,3.3
			L162.7,280.5z"/>
	</g>
</g>
</svg>
