<svg xmlns="http://www.w3.org/2000/svg" viewBox="0 0 366.99 366.99"><defs><style>.cls-1{fill:#779e91;}.cls-2{fill:#fff;}.cls-3{fill:#bacde6;}</style></defs><title>Fichier 6</title><g id="Calque_2" data-name="Calque 2"><g id="Objects"><circle class="cls-1" cx="183.49" cy="183.49" r="183.49"/><circle class="cls-2" cx="183.49" cy="284.62" r="55.12"/><path class="cls-3" d="M193.05,241s29.88,5,30.64,40.6C223.69,281.58,214.89,256.69,193.05,241Z"/><circle class="cls-2" cx="188.14" cy="149.77" r="29.57"/><path class="cls-3" d="M193.27,126.36s16,2.67,16.44,21.78C209.71,148.14,205,134.78,193.27,126.36Z"/><circle class="cls-2" cx="100.99" cy="120.19" r="29.57"/><path class="cls-3" d="M106.11,96.79s16,2.67,16.44,21.78C122.55,118.57,117.83,105.21,106.11,96.79Z"/><circle class="cls-2" cx="151.79" cy="60.96" r="10.94"/><path class="cls-3" d="M153.69,52.3s5.93,1,6.08,8.06A18.84,18.84,0,0,0,153.69,52.3Z"/><circle class="cls-2" cx="63.66" cy="233.17" r="10.94"/><path class="cls-3" d="M65.55,224.51s5.94,1,6.09,8.06A18.75,18.75,0,0,0,65.55,224.51Z"/><circle class="cls-2" cx="269.05" cy="267.98" r="10.94"/><path class="cls-3" d="M271,259.32s5.93,1,6.08,8.06A18.74,18.74,0,0,0,271,259.32Z"/><circle class="cls-2" cx="269.05" cy="202.81" r="41.3"/><path class="cls-3" d="M276.22,170.12s22.38,3.73,22.95,30.42C299.17,200.54,292.57,181.89,276.22,170.12Z"/><circle class="cls-2" cx="124.46" cy="202.81" r="23.47"/><path class="cls-3" d="M127.8,186.82s12.72,2.12,13,17.28C140.85,204.1,137.09,193.5,127.8,186.82Z"/><circle class="cls-2" cx="247.16" cy="92.39" r="23.47"/><path class="cls-3" d="M250.51,76.39s12.72,2.12,13,17.29C263.55,93.68,259.8,83.08,250.51,76.39Z"/></g></g></svg>