<svg xmlns="http://www.w3.org/2000/svg" viewBox="0 0 380.3 380.3"><defs><style>.cls-1{fill:#bacde6;}.cls-2{fill:#fff;}</style></defs><title>Fichier 4</title><g id="Calque_2" data-name="Calque 2"><g id="Objects"><circle id="icone_main" data-name="icone main" class="cls-1" cx="190.15" cy="190.15" r="190.15"/><path id="main" class="cls-2" d="M41.29,237.88c3.09,3.15,7.13,4.6,11.15,6,12.38,4.2,25,3.79,37.65,1.53,25.89-4.63,46.25-18.23,62.4-38.55a50,50,0,0,0,8.41-15.45c2.1-4.49,2.73-9.37,3.32-14.19.35-2.85-.11-5.8-.21-8.71-.76-1.09-.14-2.29-.24-3.43-1.26-13.41-4-26.64-4.67-40.12-.34-6.64.44-13.06,3.59-19a20.68,20.68,0,0,0,2.83-10.5c-1.79-2.61-3.07-3.09-6.19-1.85-12.42,4.92-19.31,14.22-21.08,27.31-1.06,7.84-.18,15.65.89,23.45.76,5.51,1.63,11,1,16.65-.43,3.84-2.7,4.88-5.9,2.7s-4.76-5.51-6.15-8.93A44.54,44.54,0,0,1,126,125.87a65.83,65.83,0,0,1,5.09-14c.19-.31.19-.77.66-.87v0c.55-3.28,2.49-5.94,4-8.75,7-12.81,16-24.21,25.1-35.48,5.84-7.19,10.86-14.86,13.84-23.71.07-.21.19-.4.25-.61.74-2.58.2-5.82-1.28-6.57-2.39-1.2-4.25.24-6,1.56-4.08,3-7,7.09-10.37,10.83a285.07,285.07,0,0,1-30.72,29.16,105.2,105.2,0,0,0-24.79,29.4,93.4,93.4,0,0,0-10.88,32.42c-1.83,12.32-.59,24.46,1.1,36.64,1.53,11.08,2.74,22.2,1.63,33.4-.92,9.37-4.16,17.76-11.5,24.08-5.26,4.53-11.54,6.65-18.38,7.24a53.75,53.75,0,0,1-20.46-2.46,13.9,13.9,0,0,0-2-.31Z"/><path id="main-2" data-name="main" class="cls-2" d="M175.76,335.31c-3.79-2.28-6.13-5.87-8.39-9.46-7-11.07-9.5-23.42-10.24-36.27-1.51-26.25,7-49.21,23-69.64a49.81,49.81,0,0,1,13.07-11.77c3.89-3.08,8.48-4.83,13-6.52,2.7-1,5.67-1.25,8.53-1.83,1.23.48,2.25-.4,3.39-.56,13.33-1.89,26.84-2.31,40.1-4.78,6.54-1.21,12.61-3.46,17.66-7.91a20.73,20.73,0,0,1,9.56-5.19c2.95,1.13,3.71,2.27,3.24,5.59-1.9,13.23-9.35,22.08-21.68,26.85-7.37,2.85-15.17,3.82-23,4.58-5.53.55-11.11,1-16.42,2.9-3.63,1.32-4.12,3.77-1.26,6.37s6.46,3.35,10.11,3.91A44.51,44.51,0,0,0,265,226.91a65.81,65.81,0,0,0,12.44-8.21c.26-.26.71-.36.7-.85l0,0c3.06-1.3,5.2-3.81,7.58-6,10.84-9.76,19.84-21.14,28.68-32.66,5.63-7.35,11.92-14,19.84-19,.19-.12.35-.28.54-.38,2.33-1.32,5.6-1.55,6.68-.28,1.72,2,.76,4.18-.11,6.22-2,4.67-5.27,8.5-8.13,12.6A285,285,0,0,0,312,215.11a105,105,0,0,1-22.84,30.94,93.67,93.67,0,0,1-29,18.12c-11.57,4.63-23.66,6.25-35.9,7.44-11.13,1.08-22.23,2.49-32.87,6.17-8.89,3.08-16.3,8.17-20.74,16.78-3.19,6.17-3.78,12.78-2.77,19.56A53.47,53.47,0,0,0,175,333.45a12.73,12.73,0,0,1,.74,1.83Z"/></g></g></svg>