<svg xmlns="http://www.w3.org/2000/svg" viewBox="0 0 367.53 367.53"><defs><style>.cls-1{fill:#779e91;}.cls-2{fill:#fff;}.cls-3{fill:#bacde6;}</style></defs><title>Fichier 5</title><g id="Calque_2" data-name="Calque 2"><g id="Objects"><circle class="cls-1" cx="183.76" cy="183.76" r="183.76"/><rect class="cls-2" x="130.55" y="256.39" width="113.54" height="13.62"/><path class="cls-2" d="M88.36,167.62H281.68s-2.3,61.73-37.59,82.06H130.55S98.33,240.7,88.36,167.62Z"/><polygon class="cls-2" points="264.42 111.8 281.68 128.5 239.49 191.94 197.29 179.98 264.42 111.8"/><path class="cls-2" d="M278,99.14h4.61a0,0,0,0,1,0,0v32.58a0,0,0,0,1,0,0H278a4.79,4.79,0,0,1-4.79-4.79v-23A4.79,4.79,0,0,1,278,99.14Z" transform="translate(1.55 234.52) rotate(-45.87)"/><path class="cls-3" d="M225.68,240.3h13.81s20.71-2.7,23.78-29.73c0,0-10.74,23.6-23.78,26.09S225.68,240.3,225.68,240.3Z"/></g></g></svg>