<svg xmlns="http://www.w3.org/2000/svg" viewBox="0 0 379.29 379.29"><defs><style>.cls-1{fill:#b9a3cc;}.cls-2{fill:#fff;}</style></defs><title>Fichier 1</title><g id="Calque_2" data-name="Calque 2"><g id="Objects"><circle id="icone_serviettes" data-name="icone serviettes" class="cls-1" cx="189.65" cy="189.65" r="189.65"/><path class="cls-2" d="M239.62,108.39c-11-19-32-27.71-48.37-20.69l-.11-.19-10.62,6.14L67.16,159.17,62.3,162c-.82.42-1.6.9-2.38,1.38,9.21-2.54,20.48-2.56,30.62,6.09,9.8,8.35,13.58,19.59,10.36,30.85-2.73,9.57-10,17.07-17.76,18.23-9.12,1.37-16.84-.2-21.75-4.42-4-3.49-6.11-8.53-6.11-15,0-8.32,3.69-12.77,6.79-15.05a18.34,18.34,0,0,1,15.59-2.66c4,1.25,7.33,5.17,8.6,10s.25,9.31-2.63,12.4A11.62,11.62,0,0,1,71.28,207a11,11,0,0,1-7.43-9.55,2.68,2.68,0,0,1,5.33-.5,5.6,5.6,0,0,0,3.84,5,6.31,6.31,0,0,0,6.7-1.75c2.33-2.49,1.73-6,1.37-7.38-.8-3.05-2.82-5.56-5-6.26a13.08,13.08,0,0,0-10.82,1.88c-3.06,2.24-4.61,5.85-4.61,10.73s1.43,8.51,4.25,10.93c3.71,3.2,9.91,4.33,17.46,3.19,5.54-.84,11.31-7,13.42-14.4,1.53-5.39,2.45-15.83-8.69-25.32-14.4-12.28-31.52-3.9-38.91.83a39.35,39.35,0,0,0,17.21,59.07,40.43,40.43,0,0,0,18,4.24,51.06,51.06,0,0,0,27.74-8.17,36.38,36.38,0,0,1-.56-10.88,38.85,38.85,0,0,1,9.18-20c0-.14,0-.27,0-.4a52.93,52.93,0,0,1,15-11.92L245,121.7A50,50,0,0,0,239.62,108.39Z"/><path class="cls-2" d="M323.76,157.75,216.17,221.4c0,15.61-6.77,27.8-17.35,37.73L301.06,200l10.62-6.13-.11-.19C321.88,186,326.27,172.06,323.76,157.75Z"/><path class="cls-2" d="M316.14,139.17c-11-19-32-27.72-48.38-20.69l-.1-.19L257,124.43,143.68,190l-9.9,5.72c10.47-4,24.68-5.79,37.27,4.94,10.42,8.88,14.43,20.84,11,32.82-2.9,10.17-10.67,18.14-18.88,19.38-9.7,1.46-17.92-.21-23.13-4.7-4.32-3.71-6.5-9.08-6.5-15.94,0-8.85,3.92-13.59,7.22-16a19.49,19.49,0,0,1,16.58-2.84c4.21,1.33,7.8,5.5,9.15,10.64,1.3,5,.26,9.9-2.81,13.18a12.33,12.33,0,0,1-13.12,3.36,11.73,11.73,0,0,1-7.91-10.16,2.85,2.85,0,1,1,5.67-.53,5.94,5.94,0,0,0,4.08,5.3,6.71,6.71,0,0,0,7.13-1.86c2.48-2.65,1.84-6.37,1.45-7.84-.85-3.24-3-5.92-5.35-6.66a13.89,13.89,0,0,0-11.5,2c-3.26,2.39-4.9,6.23-4.9,11.42s1.52,9.05,4.52,11.63c3.94,3.39,10.54,4.59,18.57,3.38,5.89-.88,12-7.47,14.26-15.31,1.64-5.73,2.61-16.84-9.23-26.93-19.72-16.81-44.25,2.8-45.29,3.64-.07,0-.15.07-.23.12a39.35,39.35,0,0,0,31.5,59.17,40.26,40.26,0,0,0,6.54.57,51.41,51.41,0,0,0,51.36-51.36l110.25-64.6A50.31,50.31,0,0,0,316.14,139.17Z"/></g></g></svg>